<svg width="170" height="24" viewBox="0 0 170 24" fill="none" xmlns="http://www.w3.org/2000/svg">
<path d="M11.6 23.28C10.088 23.28 8.66933 23 7.344 22.44C6.03733 21.8613 4.88933 21.068 3.9 20.06C2.92933 19.0333 2.164 17.8387 1.604 16.476C1.06267 15.1133 0.792 13.6387 0.792 12.052C0.792 10.484 1.06267 9.028 1.604 7.684C2.164 6.32133 2.92933 5.136 3.9 4.128C4.88933 3.10133 6.03733 2.29867 7.344 1.72C8.65067 1.14133 10.0693 0.852 11.6 0.852C13.0373 0.852 14.2693 1.03867 15.296 1.412C16.3413 1.78533 17.3867 2.40133 18.432 3.26C18.5813 3.372 18.6933 3.49333 18.768 3.624C18.8613 3.736 18.9173 3.85733 18.936 3.988C18.9733 4.1 18.992 4.24 18.992 4.408C18.992 4.76267 18.8613 5.06133 18.6 5.304C18.3573 5.528 18.0587 5.65867 17.704 5.696C17.3493 5.71467 17.004 5.59333 16.668 5.332C15.9773 4.73467 15.2587 4.27733 14.512 3.96C13.784 3.64267 12.8133 3.484 11.6 3.484C10.4987 3.484 9.46267 3.708 8.492 4.156C7.52133 4.604 6.66267 5.22 5.916 6.004C5.188 6.788 4.61867 7.70267 4.208 8.748C3.79733 9.77467 3.592 10.876 3.592 12.052C3.592 13.2467 3.79733 14.3667 4.208 15.412C4.61867 16.4387 5.188 17.344 5.916 18.128C6.66267 18.912 7.52133 19.528 8.492 19.976C9.46267 20.4053 10.4987 20.62 11.6 20.62C12.552 20.62 13.448 20.4613 14.288 20.144C15.1467 19.808 15.968 19.3507 16.752 18.772C17.088 18.5293 17.4147 18.4267 17.732 18.464C18.068 18.4827 18.348 18.6133 18.572 18.856C18.796 19.08 18.908 19.3973 18.908 19.808C18.908 19.9947 18.8707 20.1813 18.796 20.368C18.7213 20.536 18.6093 20.6947 18.46 20.844C17.452 21.6467 16.3693 22.2533 15.212 22.664C14.0733 23.0747 12.8693 23.28 11.6 23.28ZM24.7136 17.428C24.303 17.428 23.9576 17.2973 23.6776 17.036C23.4163 16.756 23.2856 16.4107 23.2856 16V2.56C23.2856 2.13067 23.4163 1.78533 23.6776 1.524C23.9576 1.26267 24.303 1.132 24.7136 1.132C25.143 1.132 25.4883 1.26267 25.7496 1.524C26.011 1.78533 26.1416 2.13067 26.1416 2.56V16C26.1416 16.4107 26.011 16.756 25.7496 17.036C25.4883 17.2973 25.143 17.428 24.7136 17.428ZM36.2216 23.028C35.811 23.028 35.4656 22.8973 35.1856 22.636C34.9243 22.356 34.7936 22.0107 34.7936 21.6V14.712C34.7936 13.648 34.5976 12.78 34.2056 12.108C33.8136 11.436 33.2816 10.9413 32.6096 10.624C31.9563 10.288 31.2003 10.12 30.3416 10.12C29.5576 10.12 28.8483 10.2787 28.2136 10.596C27.579 10.9133 27.075 11.3427 26.7016 11.884C26.3283 12.4067 26.1416 13.0133 26.1416 13.704H24.3776C24.3776 12.528 24.6576 11.4827 25.2176 10.568C25.7963 9.63467 26.5803 8.89733 27.5696 8.356C28.559 7.81467 29.6696 7.544 30.9016 7.544C32.1896 7.544 33.3376 7.824 34.3456 8.384C35.3723 8.92533 36.175 9.728 36.7536 10.792C37.351 11.856 37.6496 13.1627 37.6496 14.712V21.6C37.6496 22.0107 37.5096 22.356 37.2296 22.636C36.9683 22.8973 36.6323 23.028 36.2216 23.028ZM24.7136 23.028C24.303 23.028 23.9576 22.8973 23.6776 22.636C23.4163 22.356 23.2856 22.0107 23.2856 21.6V9.112C23.2856 8.68267 23.4163 8.33733 23.6776 8.076C23.9576 7.81467 24.303 7.684 24.7136 7.684C25.143 7.684 25.4883 7.81467 25.7496 8.076C26.011 8.33733 26.1416 8.68267 26.1416 9.112V21.6C26.1416 22.0107 26.011 22.356 25.7496 22.636C25.4883 22.8973 25.143 23.028 24.7136 23.028ZM44.1069 23C43.6962 23 43.3509 22.8693 43.0709 22.608C42.8096 22.328 42.6789 21.9827 42.6789 21.572V9.112C42.6789 8.68267 42.8096 8.33733 43.0709 8.076C43.3509 7.81467 43.6962 7.684 44.1069 7.684C44.5362 7.684 44.8816 7.81467 45.1429 8.076C45.4042 8.33733 45.5349 8.68267 45.5349 9.112V21.572C45.5349 21.9827 45.4042 22.328 45.1429 22.608C44.8816 22.8693 44.5362 23 44.1069 23ZM44.1069 5.192C43.6029 5.192 43.1642 5.01467 42.7909 4.66C42.4362 4.28667 42.2589 3.848 42.2589 3.344C42.2589 2.84 42.4362 2.41067 42.7909 2.056C43.1642 1.68267 43.6029 1.496 44.1069 1.496C44.6109 1.496 45.0402 1.68267 45.3949 2.056C45.7682 2.41067 45.9549 2.84 45.9549 3.344C45.9549 3.848 45.7682 4.28667 45.3949 4.66C45.0402 5.01467 44.6109 5.192 44.1069 5.192ZM56.4201 23.112C55.1135 23.112 53.9001 22.916 52.7801 22.524C51.6788 22.1133 50.8201 21.6 50.2041 20.984C49.9241 20.6853 49.8028 20.3493 49.8401 19.976C49.8961 19.584 50.0828 19.2667 50.4001 19.024C50.7735 18.7253 51.1375 18.604 51.4921 18.66C51.8655 18.6973 52.1828 18.856 52.4441 19.136C52.7615 19.4907 53.2655 19.8267 53.9561 20.144C54.6655 20.4427 55.4495 20.592 56.3081 20.592C57.3908 20.592 58.2121 20.4147 58.7721 20.06C59.3508 19.7053 59.6495 19.248 59.6681 18.688C59.6868 18.128 59.4161 17.6427 58.8561 17.232C58.3148 16.8213 57.3161 16.4853 55.8601 16.224C53.9748 15.8507 52.6028 15.2907 51.7441 14.544C50.9041 13.7973 50.4841 12.8827 50.4841 11.8C50.4841 10.848 50.7641 10.064 51.3241 9.448C51.8841 8.81333 52.6028 8.34667 53.4801 8.048C54.3575 7.73067 55.2721 7.572 56.2241 7.572C57.4561 7.572 58.5481 7.768 59.5001 8.16C60.4521 8.552 61.2081 9.09333 61.7681 9.784C62.0295 10.0827 62.1508 10.4 62.1321 10.736C62.1135 11.0533 61.9548 11.324 61.6561 11.548C61.3575 11.7533 61.0028 11.8187 60.5921 11.744C60.1815 11.6693 59.8361 11.5013 59.5561 11.24C59.0895 10.792 58.5855 10.484 58.0441 10.316C57.5028 10.148 56.8775 10.064 56.1681 10.064C55.3468 10.064 54.6468 10.204 54.0681 10.484C53.5081 10.764 53.2281 11.1747 53.2281 11.716C53.2281 12.052 53.3121 12.36 53.4801 12.64C53.6668 12.9013 54.0215 13.144 54.5441 13.368C55.0668 13.5733 55.8321 13.7787 56.8401 13.984C58.2401 14.264 59.3415 14.6187 60.1441 15.048C60.9655 15.4773 61.5535 15.9813 61.9081 16.56C62.2628 17.12 62.4401 17.7733 62.4401 18.52C62.4401 19.3787 62.2068 20.1533 61.7401 20.844C61.2921 21.5347 60.6201 22.0853 59.7241 22.496C58.8468 22.9067 57.7455 23.112 56.4201 23.112ZM72.9953 23.112C71.4833 23.112 70.1486 22.7853 68.9913 22.132C67.8339 21.46 66.9193 20.5453 66.2473 19.388C65.5939 18.212 65.2673 16.868 65.2673 15.356C65.2673 13.8253 65.5939 12.4813 66.2473 11.324C66.9193 10.148 67.8339 9.23333 68.9913 8.58C70.1486 7.908 71.4833 7.572 72.9953 7.572C74.4886 7.572 75.8139 7.908 76.9713 8.58C78.1286 9.23333 79.0339 10.148 79.6873 11.324C80.3593 12.4813 80.6953 13.8253 80.6953 15.356C80.6953 16.868 80.3686 18.212 79.7153 19.388C79.0619 20.5453 78.1566 21.46 76.9993 22.132C75.8419 22.7853 74.5073 23.112 72.9953 23.112ZM72.9953 20.592C73.9659 20.592 74.8246 20.368 75.5713 19.92C76.3179 19.472 76.8966 18.856 77.3073 18.072C77.7366 17.288 77.9513 16.3827 77.9513 15.356C77.9513 14.3293 77.7366 13.424 77.3073 12.64C76.8966 11.8373 76.3179 11.212 75.5713 10.764C74.8246 10.316 73.9659 10.092 72.9953 10.092C72.0246 10.092 71.1659 10.316 70.4193 10.764C69.6726 11.212 69.0846 11.8373 68.6553 12.64C68.2259 13.424 68.0113 14.3293 68.0113 15.356C68.0113 16.3827 68.2259 17.288 68.6553 18.072C69.0846 18.856 69.6726 19.472 70.4193 19.92C71.1659 20.368 72.0246 20.592 72.9953 20.592ZM105.05 23.028C104.639 23.028 104.294 22.8973 104.014 22.636C103.752 22.356 103.622 22.0107 103.622 21.6V13.592C103.622 12.416 103.332 11.548 102.754 10.988C102.175 10.4093 101.419 10.12 100.486 10.12C99.5151 10.12 98.7124 10.456 98.0778 11.128C97.4618 11.8 97.1538 12.6587 97.1538 13.704H94.8298C94.8298 12.4907 95.0911 11.4267 95.6138 10.512C96.1364 9.57867 96.8644 8.85067 97.7978 8.328C98.7498 7.80533 99.8324 7.544 101.046 7.544C102.11 7.544 103.052 7.77733 103.874 8.244C104.695 8.71067 105.33 9.40133 105.778 10.316C106.244 11.212 106.478 12.304 106.478 13.592V21.6C106.478 22.0107 106.347 22.356 106.086 22.636C105.824 22.8973 105.479 23.028 105.05 23.028ZM86.3738 23.028C85.9631 23.028 85.6178 22.8973 85.3378 22.636C85.0764 22.356 84.9458 22.0107 84.9458 21.6V9.14C84.9458 8.71067 85.0764 8.36533 85.3378 8.104C85.6178 7.84267 85.9631 7.712 86.3738 7.712C86.8031 7.712 87.1484 7.84267 87.4098 8.104C87.6711 8.36533 87.8018 8.71067 87.8018 9.14V21.6C87.8018 22.0107 87.6711 22.356 87.4098 22.636C87.1484 22.8973 86.8031 23.028 86.3738 23.028ZM95.7258 23.028C95.3151 23.028 94.9698 22.8973 94.6898 22.636C94.4284 22.356 94.2978 22.0107 94.2978 21.6V13.592C94.2978 12.416 94.0084 11.548 93.4298 10.988C92.8511 10.4093 92.0951 10.12 91.1618 10.12C90.1911 10.12 89.3884 10.456 88.7538 11.128C88.1191 11.8 87.8018 12.6587 87.8018 13.704H86.0378C86.0378 12.4907 86.2804 11.4267 86.7658 10.512C87.2511 9.57867 87.9231 8.85067 88.7818 8.328C89.6404 7.80533 90.6204 7.544 91.7218 7.544C92.7858 7.544 93.7284 7.77733 94.5498 8.244C95.3711 8.71067 96.0058 9.40133 96.4538 10.316C96.9204 11.212 97.1538 12.304 97.1538 13.592V21.6C97.1538 22.0107 97.0231 22.356 96.7618 22.636C96.5004 22.8973 96.1551 23.028 95.7258 23.028ZM112.035 23.448C111.512 23.448 111.055 23.2613 110.663 22.888C110.29 22.496 110.103 22.0387 110.103 21.516C110.103 20.9747 110.29 20.5173 110.663 20.144C111.055 19.752 111.512 19.556 112.035 19.556C112.576 19.556 113.034 19.752 113.407 20.144C113.78 20.5173 113.967 20.9747 113.967 21.516C113.967 22.0387 113.78 22.496 113.407 22.888C113.034 23.2613 112.576 23.448 112.035 23.448Z" fill="black"/>
<path d="M119.631 23C119.22 23 118.875 22.86 118.595 22.58C118.315 22.3 118.175 21.9547 118.175 21.544V2.588C118.175 2.15867 118.315 1.81333 118.595 1.552C118.875 1.272 119.22 1.132 119.631 1.132H124.699C126.304 1.132 127.76 1.40267 129.067 1.944C130.392 2.46667 131.54 3.22267 132.511 4.212C133.482 5.18267 134.228 6.33067 134.751 7.656C135.274 8.98133 135.535 10.4467 135.535 12.052C135.535 13.6573 135.274 15.132 134.751 16.476C134.228 17.8013 133.482 18.9587 132.511 19.948C131.54 20.9187 130.392 21.6747 129.067 22.216C127.76 22.7387 126.304 23 124.699 23H119.631ZM121.087 20.424H124.699C126.267 20.424 127.648 20.0693 128.843 19.36C130.056 18.632 131.008 17.6427 131.699 16.392C132.39 15.1227 132.735 13.676 132.735 12.052C132.735 10.4093 132.39 8.96267 131.699 7.712C131.008 6.46133 130.056 5.48133 128.843 4.772C127.648 4.06267 126.267 3.708 124.699 3.708H121.087V20.424ZM147.021 23.112C145.471 23.112 144.09 22.7853 142.877 22.132C141.682 21.46 140.739 20.5453 140.049 19.388C139.377 18.212 139.041 16.868 139.041 15.356C139.041 13.8253 139.358 12.4813 139.993 11.324C140.646 10.148 141.542 9.23333 142.681 8.58C143.819 7.908 145.126 7.572 146.601 7.572C148.057 7.572 149.307 7.89867 150.353 8.552C151.398 9.18667 152.191 10.0733 152.733 11.212C153.293 12.332 153.573 13.6293 153.573 15.104C153.573 15.4587 153.451 15.7573 153.209 16C152.966 16.224 152.658 16.336 152.285 16.336H141.001V14.096H152.201L151.053 14.88C151.034 13.9467 150.847 13.116 150.493 12.388C150.138 11.6413 149.634 11.0533 148.981 10.624C148.327 10.1947 147.534 9.98 146.601 9.98C145.537 9.98 144.622 10.2133 143.857 10.68C143.11 11.1467 142.541 11.7907 142.149 12.612C141.757 13.4147 141.561 14.3293 141.561 15.356C141.561 16.3827 141.794 17.2973 142.261 18.1C142.727 18.9027 143.371 19.5373 144.193 20.004C145.014 20.4707 145.957 20.704 147.021 20.704C147.599 20.704 148.187 20.6013 148.785 20.396C149.401 20.172 149.895 19.92 150.269 19.64C150.549 19.4347 150.847 19.332 151.165 19.332C151.501 19.3133 151.79 19.4067 152.033 19.612C152.35 19.892 152.518 20.2 152.537 20.536C152.555 20.872 152.406 21.1613 152.089 21.404C151.454 21.908 150.661 22.3187 149.709 22.636C148.775 22.9533 147.879 23.112 147.021 23.112ZM161.848 22.972C161.27 22.972 160.822 22.664 160.504 22.048L154.568 9.532C154.419 9.21467 154.4 8.90667 154.512 8.608C154.643 8.29067 154.886 8.048 155.24 7.88C155.558 7.712 155.875 7.684 156.192 7.796C156.528 7.908 156.78 8.12267 156.948 8.44L162.492 20.396H161.148L166.636 8.44C166.804 8.12267 167.056 7.908 167.392 7.796C167.747 7.684 168.102 7.712 168.456 7.88C168.792 8.02933 169.016 8.26267 169.128 8.58C169.24 8.89733 169.222 9.21467 169.072 9.532L163.136 22.048C162.856 22.664 162.427 22.972 161.848 22.972Z" fill="#4A26DB"/>
</svg>
