<svg width="25" height="25" viewBox="0 0 25 25" fill="none" xmlns="http://www.w3.org/2000/svg">
<path d="M9.5 3.85693V5.85693M15.5 3.85693V5.85693M9.5 19.8569V21.8569M15.5 19.8569V21.8569M5.5 9.85693H3.5M5.5 15.8569H3.5M21.5 9.85693H19.5M21.5 15.8569H19.5M7.5 19.8569H17.5C18.0304 19.8569 18.5391 19.6462 18.9142 19.2711C19.2893 18.8961 19.5 18.3874 19.5 17.8569V7.85693C19.5 7.3265 19.2893 6.81779 18.9142 6.44272C18.5391 6.06765 18.0304 5.85693 17.5 5.85693H7.5C6.96957 5.85693 6.46086 6.06765 6.08579 6.44272C5.71071 6.81779 5.5 7.3265 5.5 7.85693V17.8569C5.5 18.3874 5.71071 18.8961 6.08579 19.2711C6.46086 19.6462 6.96957 19.8569 7.5 19.8569ZM9.5 9.85693H15.5V15.8569H9.5V9.85693Z" stroke="white" stroke-width="2" stroke-linecap="round" stroke-linejoin="round"/>
</svg>
