<svg width="31" height="35" viewBox="0 0 31 35" fill="none" xmlns="http://www.w3.org/2000/svg">
<g clip-path="url(#clip0_241_642)">
<path d="M29.9342 16.0925L16.8393 2.99434C16.4768 2.63215 15.9854 2.42871 15.4729 2.42871C14.9605 2.42871 14.469 2.63215 14.1065 2.99434L11.3838 5.71509L14.8338 9.16509C16.6458 8.55304 18.3614 10.2881 17.7393 12.0901L21.0648 15.4155C23.357 14.6254 25.1617 17.4914 23.44 19.2117C21.6661 20.9856 18.7384 19.0196 19.69 16.7113L16.5862 13.6115V21.7711C18.2804 22.6109 18.0768 24.5736 17.1943 25.4542C16.763 25.8851 16.1783 26.1272 15.5687 26.1272C14.959 26.1272 14.3743 25.8851 13.9431 25.4542C12.7666 24.2756 13.2018 22.3129 14.6965 21.7042V13.4675C13.3036 12.8977 13.0492 11.4091 13.4483 10.4542L10.0472 7.04902L1.0659 16.0316C0.703557 16.394 0.5 16.8855 0.5 17.398C0.5 17.9105 0.703557 18.402 1.0659 18.7644L14.1648 31.8626C14.5272 32.2248 15.0185 32.4282 15.5309 32.4282C16.0432 32.4282 16.5345 32.2248 16.8969 31.8626L29.9342 18.8254C30.2965 18.4629 30.5001 17.9714 30.5001 17.459C30.5001 16.9465 30.2965 16.455 29.9342 16.0925Z" fill="#4A26DB"/>
</g>
<defs>
<clipPath id="clip0_241_642">
<rect width="30" height="34.2857" fill="white" transform="translate(0.5 0.285645)"/>
</clipPath>
</defs>
</svg>
