<svg width="24" height="25" viewBox="0 0 24 25" fill="none" xmlns="http://www.w3.org/2000/svg">
<g clip-path="url(#clip0_241_702)">
<path d="M8.02742 19.3716C8.02742 19.4684 7.91613 19.5458 7.77581 19.5458C7.61613 19.5603 7.50484 19.4829 7.50484 19.3716C7.50484 19.2748 7.61613 19.1974 7.75645 19.1974C7.90161 19.1829 8.02742 19.2603 8.02742 19.3716ZM6.52258 19.1539C6.48871 19.2506 6.58548 19.3619 6.73065 19.391C6.85645 19.4393 7.00161 19.391 7.03064 19.2942C7.05968 19.1974 6.96774 19.0861 6.82258 19.0426C6.69677 19.0087 6.55645 19.0571 6.52258 19.1539ZM8.66129 19.0716C8.52097 19.1055 8.42419 19.1974 8.43871 19.3087C8.45323 19.4055 8.57903 19.4684 8.72419 19.4345C8.86452 19.4006 8.96129 19.3087 8.94677 19.2119C8.93226 19.12 8.80161 19.0571 8.66129 19.0716ZM11.8452 0.529663C5.13387 0.529663 0 5.62482 0 12.3361C0 17.7022 3.37742 22.2942 8.20161 23.9103C8.82097 24.0216 9.03871 23.6393 9.03871 23.3248C9.03871 23.0248 9.02419 21.37 9.02419 20.3539C9.02419 20.3539 5.6371 21.0797 4.92581 18.9119C4.92581 18.9119 4.37419 17.5039 3.58065 17.141C3.58065 17.141 2.47258 16.3813 3.65806 16.3958C3.65806 16.3958 4.8629 16.4926 5.52581 17.6442C6.58548 19.5119 8.36129 18.9748 9.05323 18.6555C9.16452 17.8813 9.47903 17.3442 9.82742 17.0248C7.12258 16.7248 4.39355 16.3329 4.39355 11.678C4.39355 10.3474 4.76129 9.67966 5.53548 8.82805C5.40968 8.51353 4.99839 7.21676 5.66129 5.54257C6.67258 5.22805 9 6.84902 9 6.84902C9.96774 6.57805 11.0081 6.43773 12.0387 6.43773C13.0694 6.43773 14.1097 6.57805 15.0774 6.84902C15.0774 6.84902 17.4048 5.22321 18.4161 5.54257C19.079 7.2216 18.6677 8.51353 18.5419 8.82805C19.3161 9.6845 19.7903 10.3522 19.7903 11.678C19.7903 16.3474 16.9403 16.72 14.2355 17.0248C14.6806 17.4071 15.0581 18.1329 15.0581 19.27C15.0581 20.9006 15.0435 22.9184 15.0435 23.3151C15.0435 23.6297 15.2661 24.0119 15.8806 23.9006C20.7194 22.2942 24 17.7022 24 12.3361C24 5.62482 18.5565 0.529663 11.8452 0.529663ZM4.70323 17.2184C4.64032 17.2668 4.65484 17.378 4.7371 17.47C4.81452 17.5474 4.92581 17.5813 4.98871 17.5184C5.05161 17.47 5.0371 17.3587 4.95484 17.2668C4.87742 17.1893 4.76613 17.1555 4.70323 17.2184ZM4.18064 16.8264C4.14677 16.8893 4.19516 16.9668 4.29194 17.0151C4.36935 17.0635 4.46613 17.049 4.5 16.9813C4.53387 16.9184 4.48548 16.841 4.38871 16.7926C4.29194 16.7635 4.21452 16.778 4.18064 16.8264ZM5.74839 18.549C5.67097 18.6119 5.7 18.7571 5.81129 18.849C5.92258 18.9603 6.0629 18.9748 6.12581 18.8974C6.18871 18.8345 6.15968 18.6893 6.0629 18.5974C5.95645 18.4861 5.81129 18.4716 5.74839 18.549ZM5.19677 17.8377C5.11935 17.8861 5.11935 18.0119 5.19677 18.1232C5.27419 18.2345 5.40484 18.2829 5.46774 18.2345C5.54516 18.1716 5.54516 18.0458 5.46774 17.9345C5.4 17.8232 5.27419 17.7748 5.19677 17.8377Z" fill="#4A26DB"/>
</g>
<defs>
<clipPath id="clip0_241_702">
<rect width="24" height="24.7742" fill="white" transform="translate(0 0.142578)"/>
</clipPath>
</defs>
</svg>
