<svg width="31" height="36" viewBox="0 0 31 36" fill="none" xmlns="http://www.w3.org/2000/svg">
<g clip-path="url(#clip0_241_622)">
<path d="M27.2857 2.20557H3.71429C1.93973 2.20557 0.5 3.68729 0.5 5.5136V29.7725C0.5 31.5988 1.93973 33.0806 3.71429 33.0806H27.2857C29.0603 33.0806 30.5 31.5988 30.5 29.7725V5.5136C30.5 3.68729 29.0603 2.20557 27.2857 2.20557ZM16.8259 26.2853C16.8259 29.2901 15.1116 30.6616 12.6138 30.6616C10.3571 30.6616 9.05134 29.4624 8.3817 28.0082L10.6786 26.5817C11.1205 27.388 11.5223 28.0703 12.4933 28.0703C13.4174 28.0703 14.0067 27.6981 14.0067 26.244V16.3819H16.8259V26.2853ZM23.4955 30.6616C20.8772 30.6616 19.183 29.3797 18.3594 27.6981L20.6562 26.3336C21.2589 27.3466 22.0491 28.0978 23.4353 28.0978C24.6004 28.0978 25.3504 27.4983 25.3504 26.6644C25.3504 25.6719 24.5871 25.3205 23.2946 24.7347L22.5915 24.4245C20.5558 23.5355 19.2098 22.4121 19.2098 20.0483C19.2098 17.8705 20.8237 16.2165 23.3348 16.2165C25.1295 16.2165 26.4152 16.8574 27.3393 18.539L25.1429 19.9863C24.6607 19.0972 24.1384 18.7457 23.3281 18.7457C22.5045 18.7457 21.9821 19.2833 21.9821 19.9863C21.9821 20.8546 22.5045 21.2061 23.7165 21.7505L24.4196 22.0607C26.817 23.1151 28.1629 24.1971 28.1629 26.623C28.1629 29.2281 26.1674 30.6616 23.4955 30.6616Z" fill="#4A26DB"/>
</g>
<defs>
<clipPath id="clip0_241_622">
<rect width="30" height="35.2857" fill="white" transform="translate(0.5)"/>
</clipPath>
</defs>
</svg>
