<svg width="25" height="24" viewBox="0 0 25 24" fill="none" xmlns="http://www.w3.org/2000/svg">
<path d="M8.5 9L11.5 12L8.5 15M13.5 15H16.5M5.5 20H19.5C20.0304 20 20.5391 19.7893 20.9142 19.4142C21.2893 19.0391 21.5 18.5304 21.5 18V6C21.5 5.46957 21.2893 4.96086 20.9142 4.58579C20.5391 4.21071 20.0304 4 19.5 4H5.5C4.96957 4 4.46086 4.21071 4.08579 4.58579C3.71071 4.96086 3.5 5.46957 3.5 6V18C3.5 18.5304 3.71071 19.0391 4.08579 19.4142C4.46086 19.7893 4.96957 20 5.5 20Z" stroke="white" stroke-width="2" stroke-linecap="round" stroke-linejoin="round"/>
</svg>
