<svg width="31" height="31" viewBox="0 0 31 31" fill="none" xmlns="http://www.w3.org/2000/svg">
<g clip-path="url(#clip0_241_668)">
<path d="M30.0546 6.9296C30.05 6.91598 30.0446 6.90267 30.0382 6.88975C30.0298 6.86455 30.0195 6.84006 30.0072 6.81651C29.9977 6.80188 29.9871 6.78797 29.9755 6.77491C29.9627 6.75568 29.9486 6.73728 29.9334 6.71983C29.9199 6.70694 29.9029 6.69639 29.8882 6.68468C29.8715 6.67029 29.8539 6.65698 29.8355 6.64483L24.1953 3.39757C24.124 3.35642 24.0432 3.33477 23.9609 3.33477C23.8786 3.33477 23.7978 3.35642 23.7265 3.39757L18.0851 6.64659C18.067 6.65886 18.0498 6.67237 18.0335 6.68702C18.0176 6.69775 18.0023 6.70949 17.9878 6.72218C17.9725 6.73931 17.9584 6.75752 17.9457 6.77667C17.9357 6.79073 17.9228 6.80304 17.914 6.81827C17.9022 6.84194 17.892 6.86642 17.8835 6.89151C17.8789 6.90499 17.8712 6.91729 17.8671 6.93136C17.8564 6.97109 17.8509 7.01207 17.8507 7.05323V13.2196L13.1503 15.9261V3.85987C13.1504 3.8185 13.1449 3.7773 13.1339 3.73741C13.1304 3.72335 13.1222 3.71104 13.1175 3.69757C13.1093 3.67257 13.0992 3.64827 13.0871 3.62491C13.0789 3.60968 13.0654 3.59737 13.0554 3.58272C13.0425 3.56349 13.0284 3.54509 13.0132 3.52764C12.9986 3.51514 12.9834 3.50341 12.9675 3.49249C12.9511 3.47824 12.9339 3.46494 12.916 3.45264L7.27398 0.205379C7.20272 0.164237 7.12188 0.142578 7.0396 0.142578C6.95732 0.142578 6.87649 0.164237 6.80523 0.205379L1.16441 3.45264C1.14609 3.46462 1.12884 3.47815 1.11284 3.49307C1.09668 3.5038 1.08122 3.51554 1.06655 3.52823C1.0514 3.54537 1.0375 3.56359 1.02495 3.58272C1.01441 3.59737 1.00152 3.60968 0.992726 3.62491C0.980719 3.64824 0.970722 3.67254 0.962844 3.69757C0.956444 3.71032 0.950771 3.72343 0.945851 3.73682C0.935072 3.77696 0.929557 3.81832 0.929445 3.85987V23.1782C0.92922 23.2607 0.950773 23.3418 0.991926 23.4133C1.03308 23.4848 1.09237 23.5442 1.16382 23.5855L12.4431 30.08C12.4682 30.0926 12.4943 30.1032 12.521 30.1116C12.5334 30.1163 12.5451 30.1233 12.558 30.1269C12.6367 30.1479 12.7195 30.1479 12.7982 30.1269C12.8099 30.1239 12.8199 30.1175 12.8304 30.114C12.8587 30.1051 12.8862 30.0937 12.9125 30.08L24.1953 23.5855C24.2667 23.5442 24.326 23.4848 24.3672 23.4133C24.4083 23.3418 24.4299 23.2607 24.4296 23.1782V17.0107L29.8343 13.8987C29.9062 13.8572 29.9658 13.7974 30.007 13.7253C30.0481 13.6533 30.0694 13.5716 30.0687 13.4886V7.05206C30.069 7.01082 30.0643 6.96969 30.0546 6.9296ZM7.03902 1.15518L11.7376 3.85928L7.03843 6.56514L2.34038 3.85987L7.03902 1.15518ZM12.2099 4.67081V16.4669L9.48355 18.0366L7.50952 19.1733V7.37901L10.2359 5.80929L12.2099 4.67081ZM12.2099 28.8571L1.86929 22.9064V4.67315L3.84331 5.8087L6.56909 7.37901V19.9872C6.57028 20.0049 6.57263 20.0225 6.57612 20.0399C6.57753 20.0632 6.58066 20.0863 6.5855 20.1091C6.59146 20.1273 6.5989 20.1449 6.60777 20.1618C6.61429 20.182 6.62252 20.2016 6.63237 20.2204C6.64321 20.2363 6.65494 20.2516 6.66753 20.2661C6.67925 20.2834 6.69218 20.2999 6.7062 20.3153C6.71968 20.3282 6.73667 20.3376 6.75132 20.3493C6.76732 20.3632 6.78415 20.3761 6.80171 20.388L12.2035 23.4454L12.2099 28.8571ZM12.6787 22.6362L7.98765 19.9808L12.9148 17.1442L18.3207 14.0323L23.0158 16.7353L19.5705 18.7017L12.6787 22.6362ZM23.4904 22.904L13.1492 28.8601V23.4513L20.8085 19.0802L23.4904 17.548V22.904ZM23.4904 15.9237L21.5164 14.7911L18.79 13.2214V7.86475L20.764 9.00147L23.4904 10.5724V15.9237ZM23.9591 9.75499L19.2599 7.04971L23.9591 4.34503L28.6572 7.04913L23.9591 9.75499ZM24.4279 15.9237V10.5724L27.1601 9.00147L29.1335 7.86475V13.2196L24.4279 15.9237Z" fill="#4A26DB"/>
</g>
<defs>
<clipPath id="clip0_241_668">
<rect width="30" height="30" fill="white" transform="translate(0.5 0.142578)"/>
</clipPath>
</defs>
</svg>
