<svg width="31" height="35" viewBox="0 0 31 35" fill="none" xmlns="http://www.w3.org/2000/svg">
<g clip-path="url(#clip0_241_648)">
<path d="M15.2857 8.828C15.3526 8.86149 15.4062 8.94184 15.4865 8.94184C15.5602 8.94184 15.674 8.91506 15.6807 8.8414C15.6941 8.74765 15.5535 8.68738 15.4665 8.6472C15.3526 8.60033 15.2053 8.58024 15.0982 8.6405C15.0714 8.6539 15.0446 8.68738 15.058 8.71417C15.0781 8.80122 15.212 8.78783 15.2857 8.828ZM13.8191 8.94184C13.8995 8.94184 13.9531 8.86149 14.02 8.828C14.0937 8.78783 14.2276 8.80122 14.2544 8.72086C14.2678 8.69408 14.241 8.66059 14.2142 8.6472C14.1071 8.58693 13.9598 8.60702 13.8459 8.6539C13.7589 8.69408 13.6182 8.75434 13.6316 8.84809C13.6383 8.91506 13.7522 8.94854 13.8191 8.94184ZM28.6249 27.6115C28.3839 27.3436 28.27 26.8347 28.1428 26.2923C28.0223 25.7499 27.8816 25.1673 27.4397 24.7923C27.3526 24.7186 27.2656 24.6517 27.1718 24.5981C27.0848 24.5445 26.991 24.4976 26.8973 24.4642C27.5133 22.636 27.2723 20.8146 26.6495 19.1673C25.8861 17.1517 24.5535 15.3905 23.5357 14.1851C22.3906 12.7454 21.279 11.3793 21.299 9.36372C21.3325 6.29006 21.6406 0.578005 16.2232 0.571308C9.36601 0.557916 11.0803 7.49542 11.0066 9.62488C10.8928 11.1918 10.5781 12.424 9.49994 13.9575C8.23431 15.4642 6.45306 17.895 5.60931 20.4329C5.20753 21.6316 5.02003 22.8503 5.19413 24.0021C4.75887 24.3905 4.43074 24.9865 4.08253 25.3548C3.80128 25.6427 3.39279 25.7499 2.94413 25.9106C2.49547 26.0713 2.00663 26.3124 1.70529 26.8816C1.56467 27.1427 1.51779 27.424 1.51779 27.7119C1.51779 27.9731 1.55797 28.2409 1.59815 28.5021C1.67851 29.0445 1.76556 29.5534 1.65172 29.895C1.30351 30.8593 1.25663 31.5289 1.5044 32.0177C1.75887 32.5066 2.26779 32.7209 2.85038 32.8414C4.00887 33.0825 5.58253 33.0222 6.82137 33.6784C8.14726 34.3749 9.49324 34.6226 10.5647 34.3749C11.3415 34.2008 11.9776 33.732 12.299 33.0222C13.1361 33.0155 14.0602 32.6606 15.5334 32.5802C16.5312 32.4999 17.7834 32.9351 19.2232 32.8548C19.2633 33.0088 19.3169 33.1628 19.3906 33.3034V33.3101C19.9464 34.4284 20.9843 34.9374 22.0892 34.8503C23.2008 34.7633 24.3727 34.1137 25.3236 32.982C26.2343 31.8838 27.7343 31.4284 28.7321 30.8258C29.2276 30.5244 29.6294 30.1494 29.6629 29.6003C29.6897 29.0512 29.3682 28.4418 28.6249 27.6115ZM15.4798 6.41729C16.1361 4.93068 17.77 4.95747 18.4263 6.3905C18.8615 7.3414 18.6673 8.4597 18.1383 9.09586C18.0312 9.04229 17.7432 8.92175 17.2946 8.76774C17.3682 8.68738 17.5022 8.58693 17.5557 8.4597C17.8772 7.66952 17.5423 6.65167 16.9464 6.63158C16.4575 6.59809 16.0156 7.35479 16.1562 8.17175C15.8816 8.03783 15.5267 7.93738 15.2857 7.87711C15.2187 7.41506 15.2656 6.89943 15.4798 6.41729ZM12.7544 5.6472C13.4307 5.6472 14.1473 6.59809 14.0334 7.8905C13.799 7.95747 13.558 8.05792 13.3504 8.19854C13.4307 7.60256 13.1294 6.85256 12.7075 6.88604C12.145 6.93292 12.0513 8.30568 12.587 8.76774C12.654 8.82131 12.7142 8.75434 12.1919 9.13604C11.1473 8.15836 11.4888 5.6472 12.7544 5.6472ZM11.8437 9.71193C12.2589 9.4039 12.7544 9.04229 12.7879 9.00881C13.1026 8.71417 13.6919 8.05792 14.6562 8.05792C15.1316 8.05792 15.7008 8.21193 16.3906 8.6539C16.8124 8.92845 17.1473 8.94854 17.904 9.27667C18.4665 9.51104 18.8214 9.92622 18.6071 10.4954C18.433 10.9709 17.8705 11.4597 17.087 11.7075C16.3437 11.9485 15.7611 12.7789 14.529 12.7052C14.2678 12.6918 14.0602 12.6383 13.8861 12.5646C13.3504 12.3302 13.0691 11.8682 12.5468 11.5601C11.9709 11.2387 11.6629 10.8637 11.5624 10.5356C11.4687 10.2075 11.5624 9.93292 11.8437 9.71193ZM12.0647 32.078C11.8839 34.4284 9.12494 34.3816 7.02226 33.2834C5.02003 32.2253 2.42851 32.8481 1.89949 31.8168C1.73878 31.5021 1.73878 30.9664 2.0736 30.049V30.0356C2.23431 29.5267 2.11378 28.9642 2.03342 28.4351C1.95306 27.9128 1.91288 27.4307 2.09369 27.0959C2.32806 26.6472 2.66288 26.4865 3.08476 26.3392C3.77449 26.0914 3.87494 26.1115 4.39726 25.6762C4.76556 25.2945 5.03342 24.8124 5.35485 24.4709C5.69637 24.1026 6.02449 23.9284 6.54012 24.0088C7.08253 24.0892 7.55128 24.4642 8.00663 25.0802L9.31913 27.4642C9.95529 28.7968 12.2053 30.7052 12.0647 32.078ZM11.9709 30.3436C11.6964 29.9017 11.3281 29.4329 11.0066 29.0311C11.4821 29.0311 11.9575 28.8838 12.1249 28.4351C12.279 28.02 12.1249 27.4374 11.6294 26.7677C10.7254 25.549 9.06467 24.5914 9.06467 24.5914C8.16065 24.0289 7.65172 23.3392 7.41735 22.5892C7.18297 21.8392 7.21645 21.0289 7.39726 20.232C7.74547 18.6985 8.64279 17.2052 9.21869 16.2677C9.3727 16.1539 9.27226 16.482 8.6361 17.6606C8.0669 18.7387 7.00217 21.2298 8.46199 23.1784C8.50217 21.7923 8.83029 20.3793 9.3861 19.0601C10.1897 17.2253 11.8839 14.0445 12.0178 11.5133C12.0915 11.5668 12.3258 11.7276 12.433 11.7878C12.741 11.9686 12.9754 12.2365 13.2767 12.4776C14.1071 13.1472 15.1852 13.0936 16.116 12.5579C16.5312 12.3235 16.866 12.0557 17.1807 11.9552C17.8437 11.7476 18.3727 11.3793 18.674 10.9508C19.1897 12.9865 20.395 15.9262 21.1651 17.3593C21.5736 18.1226 22.3906 19.7365 22.7455 21.6851C22.9665 21.6784 23.2142 21.7119 23.4754 21.7789C24.3995 19.3883 22.6919 16.8101 21.9151 16.0936C21.6004 15.7856 21.587 15.6517 21.741 15.6584C22.5848 16.4084 23.6964 17.9151 24.0982 19.6093C24.2857 20.386 24.3191 21.1963 24.1249 21.9999C25.2232 22.4552 26.529 23.1985 26.1807 24.3302C26.0334 24.3235 25.9665 24.3302 25.8995 24.3302C26.1138 23.6539 25.6383 23.1517 24.3727 22.5825C23.0602 22.0066 21.962 22.0066 21.808 23.4195C20.9977 23.7008 20.5825 24.4039 20.3749 25.2476C20.1874 25.9976 20.1339 26.9017 20.0803 27.9195C20.0468 28.4351 19.8392 29.1249 19.6249 29.8615C17.4754 31.395 14.4888 32.0646 11.9709 30.3436ZM29.2075 29.5735C29.1473 30.6985 26.4486 30.9061 24.9754 32.6874C24.0915 33.7387 23.0066 34.3213 22.0557 34.395C21.1048 34.4686 20.2812 34.0735 19.799 33.1026C19.4843 32.3593 19.6383 31.5557 19.8727 30.6718C20.1205 29.7209 20.4888 28.7432 20.5357 27.953C20.5892 26.9351 20.6495 26.0445 20.8169 25.3615C20.991 24.6718 21.2589 24.2097 21.7343 23.9485C21.7544 23.9351 21.7812 23.9284 21.8013 23.9151C21.8548 24.799 22.2901 25.6963 23.0602 25.8905C23.904 26.1115 25.116 25.3883 25.6316 24.799C26.2343 24.7789 26.683 24.7387 27.145 25.1405C27.808 25.7097 27.6205 27.1695 28.2901 27.9262C28.9999 28.703 29.2276 29.232 29.2075 29.5735ZM12.1048 10.5289C12.2388 10.6561 12.4196 10.8302 12.6406 11.0043C13.0825 11.3526 13.6986 11.7142 14.4687 11.7142C15.2455 11.7142 15.9754 11.3191 16.5982 10.991C16.9263 10.8168 17.3281 10.5222 17.5892 10.2945C17.8504 10.0668 17.9843 9.87265 17.7968 9.85256C17.6093 9.83247 17.6227 10.0267 17.395 10.1941C17.1004 10.4084 16.7455 10.6896 16.4642 10.8503C15.9687 11.1316 15.1584 11.5334 14.462 11.5334C13.7656 11.5334 13.2098 11.2119 12.7946 10.8838C12.587 10.7164 12.4129 10.549 12.279 10.4218C12.1785 10.328 12.1517 10.1137 11.991 10.0936C11.8973 10.0869 11.8705 10.3414 12.1048 10.5289Z" fill="#4A26DB"/>
</g>
<defs>
<clipPath id="clip0_241_648">
<rect width="30" height="34.2857" fill="white" transform="translate(0.5 0.571289)"/>
</clipPath>
</defs>
</svg>
