<svg width="25" height="25" viewBox="0 0 25 25" fill="none" xmlns="http://www.w3.org/2000/svg">
<g clip-path="url(#clip0_241_704)">
<path d="M10.4073 1.11425C6.0268 1.973 2.49946 5.50456 1.64164 9.88456C0.346018 16.4892 4.85961 22.3627 10.9745 23.2486C11.8655 23.384 12.6699 22.6739 12.6699 21.7725L12.6699 21.7414C12.6699 21.0036 12.1337 20.3877 11.4118 20.2771C7.4579 19.6686 4.41805 16.2397 4.41805 12.1114C4.41805 7.28801 8.57165 3.41613 13.4837 3.88957C17.7746 4.30531 20.9181 8.16691 20.9181 12.4771V13.2346C20.9181 14.27 20.0771 15.1119 19.0431 15.1119C18.009 15.1119 17.1676 14.27 17.1676 13.2346V7.60488C17.1676 7.19018 16.8319 6.85395 16.4171 6.85395L14.9181 6.85411C14.5759 6.85411 14.2993 7.08811 14.2093 7.40161C13.0445 6.83208 11.6668 6.6338 10.1752 7.16227C8.35883 7.80586 6.98212 9.45493 6.71962 11.3641C6.2751 14.599 8.77321 17.3641 11.9181 17.3641C13.1574 17.3641 14.282 16.9168 15.1801 16.1979C16.3051 17.6651 18.2377 18.4802 20.3082 17.9552C22.4729 17.4535 23.9166 15.3347 23.8745 13.1363V12.1566C23.8745 5.16284 17.5979 -0.294909 10.4073 1.11425ZM11.8745 14.4066C10.6337 14.4066 9.62446 13.396 9.62446 12.1542C9.62446 10.9125 10.6337 9.9019 11.8745 9.9019C13.1152 9.9019 14.1245 10.9125 14.1245 12.1542C14.1245 13.396 13.1588 14.4066 11.8745 14.4066Z" fill="#4A26DB"/>
</g>
<defs>
<clipPath id="clip0_241_704">
<rect width="24" height="24" fill="white" transform="translate(0.666748 0.142578)"/>
</clipPath>
</defs>
</svg>
