<svg width="25" height="25" viewBox="0 0 25 25" fill="none" xmlns="http://www.w3.org/2000/svg">
<g clip-path="url(#clip0_241_706)">
<path d="M1.22027 16.605L6.3062 14.4244C6.90527 14.1652 7.60792 14.34 8.0148 14.8454L10.0815 17.3682C13.3276 15.7744 15.9643 13.1349 17.5581 9.89161L15.0357 7.82723C14.5318 7.41562 14.3603 6.71676 14.6151 6.1177L16.7952 1.03176C17.0809 0.379732 17.7843 0.023013 18.4729 0.182857L23.1979 1.2727C23.8659 1.42504 24.3332 2.01333 24.3332 2.70051C24.3332 14.5271 14.7145 24.1458 2.88789 24.1458C2.20024 24.1458 1.61383 23.6786 1.46055 23.0105L0.370705 18.2855C0.212877 17.5988 0.568611 16.8863 1.22027 16.605Z" fill="#4A26DB"/>
</g>
<defs>
<clipPath id="clip0_241_706">
<rect width="24" height="24" fill="white" transform="translate(0.333252 0.142578)"/>
</clipPath>
</defs>
</svg>
