<svg width="31" height="25" viewBox="0 0 31 25" fill="none" xmlns="http://www.w3.org/2000/svg">
<g clip-path="url(#clip0_241_628)">
<path d="M15.5 5.18398C23.5344 5.18398 29.7125 8.56836 29.7125 12.2855C29.7125 16.0027 23.5297 19.3871 15.5 19.3871C7.46563 19.3871 1.2875 16.0027 1.2875 12.2855C1.2875 8.56836 7.47031 5.18398 15.5 5.18398ZM15.5 4.39648C7.21719 4.39648 0.5 7.92617 0.5 12.2855C0.5 16.6449 7.21719 20.1746 15.5 20.1746C23.7828 20.1746 30.5 16.6449 30.5 12.2855C30.5 7.92617 23.7828 4.39648 15.5 4.39648ZM10.7281 11.6527C10.3578 13.5512 9.05 13.3543 7.44219 13.3543L8.08438 10.0449C9.86563 10.0449 11.075 9.85273 10.7281 11.6527ZM5.06563 16.7059H6.78594L7.19375 14.6059C9.12031 14.6059 10.3156 14.7465 11.4219 13.7105C12.6453 12.5855 12.9641 10.584 12.0922 9.58086C11.6375 9.05586 10.9062 8.79805 9.9125 8.79805H6.59844L5.06563 16.7059ZM13.7703 6.69336H15.4813L15.0734 8.79336C16.55 8.79336 17.9188 8.68555 18.5797 9.29492C19.2734 9.93242 18.9406 10.748 18.1906 14.5965H16.4562C17.1781 10.8746 17.3141 10.5652 17.0516 10.284C16.7984 10.0121 16.2219 10.0684 14.8297 10.0684L13.9484 14.5965H12.2375L13.7703 6.69336ZM24.1719 11.6527C23.7969 13.5793 22.4516 13.3543 20.8859 13.3543L21.5281 10.0449C23.3188 10.0449 24.5187 9.85273 24.1719 11.6527ZM18.5094 16.7059H20.2344L20.6422 14.6059C22.6672 14.6059 23.7875 14.723 24.8703 13.7105C26.0938 12.5855 26.4125 10.584 25.5406 9.58086C25.0859 9.05586 24.3547 8.79805 23.3609 8.79805H20.0469L18.5094 16.7059Z" fill="#4A26DB"/>
</g>
<defs>
<clipPath id="clip0_241_628">
<rect width="30" height="24" fill="white" transform="translate(0.5 0.285645)"/>
</clipPath>
</defs>
</svg>
