<svg width="25" height="25" viewBox="0 0 25 25" fill="none" xmlns="http://www.w3.org/2000/svg">
<path d="M5.5 12.2856H19.5M5.5 12.2856C4.96957 12.2856 4.46086 12.0749 4.08579 11.6999C3.71071 11.3248 3.5 10.8161 3.5 10.2856V6.28564C3.5 5.75521 3.71071 5.2465 4.08579 4.87143C4.46086 4.49636 4.96957 4.28564 5.5 4.28564H19.5C20.0304 4.28564 20.5391 4.49636 20.9142 4.87143C21.2893 5.2465 21.5 5.75521 21.5 6.28564V10.2856C21.5 10.8161 21.2893 11.3248 20.9142 11.6999C20.5391 12.0749 20.0304 12.2856 19.5 12.2856M5.5 12.2856C4.96957 12.2856 4.46086 12.4964 4.08579 12.8714C3.71071 13.2465 3.5 13.7552 3.5 14.2856V18.2856C3.5 18.8161 3.71071 19.3248 4.08579 19.6999C4.46086 20.0749 4.96957 20.2856 5.5 20.2856H19.5C20.0304 20.2856 20.5391 20.0749 20.9142 19.6999C21.2893 19.3248 21.5 18.8161 21.5 18.2856V14.2856C21.5 13.7552 21.2893 13.2465 20.9142 12.8714C20.5391 12.4964 20.0304 12.2856 19.5 12.2856M17.5 8.28564H17.51M17.5 16.2856H17.51" stroke="white" stroke-width="2" stroke-linecap="round" stroke-linejoin="round"/>
</svg>
