<svg width="24" height="25" viewBox="0 0 24 25" fill="none" xmlns="http://www.w3.org/2000/svg">
<path d="M21.533 7.25421C21.5482 7.46739 21.5482 7.68063 21.5482 7.89382C21.5482 14.3963 16.599 21.8887 7.5533 21.8887C4.76648 21.8887 2.17767 21.0816 0 19.6806C0.395953 19.7263 0.776625 19.7415 1.18781 19.7415C3.48727 19.7415 5.60405 18.9649 7.29441 17.64C5.13197 17.5943 3.31978 16.1781 2.69541 14.2288C3 14.2745 3.30455 14.305 3.62438 14.305C4.06598 14.305 4.50764 14.244 4.91878 14.1375C2.66498 13.6806 0.974578 11.7009 0.974578 9.31005V9.24916C1.62938 9.61464 2.39086 9.84307 3.19791 9.87349C1.87303 8.99022 1.00505 7.48263 1.00505 5.77703C1.00505 4.86335 1.24866 4.02578 1.67508 3.29482C4.09641 6.27958 7.73602 8.22878 11.8172 8.44202C11.7411 8.07653 11.6954 7.69586 11.6954 7.31514C11.6954 4.60446 13.8883 2.39636 16.6141 2.39636C18.0304 2.39636 19.3095 2.99027 20.208 3.94966C21.3197 3.73647 22.3857 3.32528 23.3299 2.76185C22.9643 3.904 22.1877 4.86339 21.1674 5.47249C22.1573 5.36594 23.1167 5.09177 23.9999 4.7111C23.33 5.68567 22.4924 6.55366 21.533 7.25421Z" fill="#4A26DB"/>
</svg>
